<svg xmlns="http://www.w3.org/2000/svg" xmlns:xlink="http://www.w3.org/1999/xlink" width="500" zoomAndPan="magnify" viewBox="0 0 375 374.999991" height="500" preserveAspectRatio="xMidYMid meet" version="1.0"><defs><g/><clipPath id="3ba5d28649"><path d="M 201.882812 85.589844 L 246.769531 85.589844 L 246.769531 232.871094 L 201.882812 232.871094 Z M 201.882812 85.589844 " clip-rule="nonzero"/></clipPath><clipPath id="1eed9660a6"><path d="M 246.769531 100.554688 L 246.769531 232.773438 L 201.882812 217.8125 L 201.882812 85.589844 Z M 246.769531 100.554688 " clip-rule="nonzero"/></clipPath><clipPath id="0615fd65a4"><path d="M 164.359375 85.578125 L 201.890625 85.578125 L 201.890625 127.800781 L 164.359375 127.800781 Z M 164.359375 85.578125 " clip-rule="nonzero"/></clipPath><clipPath id="4595f798e1"><path d="M 164.359375 98.09375 L 164.359375 127.800781 L 201.890625 115.289062 L 201.890625 85.582031 Z M 164.359375 98.09375 " clip-rule="nonzero"/></clipPath><clipPath id="4646da18da"><path d="M 147.421875 121.90625 L 179.625 121.90625 L 179.625 210.214844 L 147.421875 210.214844 Z M 147.421875 121.90625 " clip-rule="nonzero"/></clipPath><clipPath id="d60f4f61cc"><path d="M 179.625 132.640625 L 179.625 210.160156 L 147.421875 199.425781 L 147.421875 121.90625 Z M 179.625 132.640625 " clip-rule="nonzero"/></clipPath><clipPath id="da45a4f57e"><path d="M 122.058594 121.820312 L 147.429688 121.820312 L 147.429688 183.660156 L 122.058594 183.660156 Z M 122.058594 121.820312 " clip-rule="nonzero"/></clipPath><clipPath id="b5e4edc38b"><path d="M 122.058594 130.351562 L 122.058594 183.660156 L 147.429688 175.203125 L 147.429688 121.894531 Z M 122.058594 130.351562 " clip-rule="nonzero"/></clipPath></defs><rect x="-37.5" width="450" fill="#ffffff" y="-37.499999" height="449.999989" fill-opacity="1"/><rect x="-37.5" width="450" fill="#0e2442" y="-37.499999" height="449.999989" fill-opacity="1"/><g clip-path="url(#3ba5d28649)"><g clip-path="url(#1eed9660a6)"><path fill="#ffffff" d="M 246.769531 85.589844 L 246.769531 232.695312 L 201.882812 232.695312 L 201.882812 85.589844 Z M 246.769531 85.589844 " fill-opacity="1" fill-rule="nonzero"/></g></g><g clip-path="url(#0615fd65a4)"><g clip-path="url(#4595f798e1)"><path fill="#c0c0c0" d="M 164.359375 127.800781 L 164.359375 85.578125 L 201.890625 85.578125 L 201.890625 127.800781 Z M 164.359375 127.800781 " fill-opacity="1" fill-rule="nonzero"/></g></g><g clip-path="url(#4646da18da)"><g clip-path="url(#d60f4f61cc)"><path fill="#ffffff" d="M 179.625 121.90625 L 179.625 210.214844 L 147.421875 210.214844 L 147.421875 121.90625 Z M 179.625 121.90625 " fill-opacity="1" fill-rule="nonzero"/></g></g><g clip-path="url(#da45a4f57e)"><g clip-path="url(#b5e4edc38b)"><path fill="#c0c0c0" d="M 122.058594 183.660156 L 122.058594 121.921875 L 147.429688 121.921875 L 147.429688 183.660156 Z M 122.058594 183.660156 " fill-opacity="1" fill-rule="nonzero"/></g></g><g fill="#ffffff" fill-opacity="1"><g transform="translate(76.117774, 270.378649)"><g><path d="M 28.578125 -23.796875 L 28.578125 0 L 26.171875 0 L 26.171875 -19.03125 L 16.828125 -3.03125 L 15.640625 -3.03125 L 6.28125 -18.921875 L 6.28125 0 L 3.875 0 L 3.875 -23.796875 L 5.953125 -23.796875 L 16.28125 -6.15625 L 26.515625 -23.796875 Z M 28.578125 -23.796875 "/></g></g></g><g fill="#ffffff" fill-opacity="1"><g transform="translate(108.557841, 270.378649)"><g><path d="M 14.28125 0.203125 C 11.914062 0.203125 9.773438 -0.320312 7.859375 -1.375 C 5.953125 -2.425781 4.457031 -3.867188 3.375 -5.703125 C 2.300781 -7.546875 1.765625 -9.609375 1.765625 -11.890625 C 1.765625 -14.179688 2.300781 -16.242188 3.375 -18.078125 C 4.457031 -19.910156 5.953125 -21.351562 7.859375 -22.40625 C 9.773438 -23.46875 11.914062 -24 14.28125 -24 C 16.632812 -24 18.753906 -23.472656 20.640625 -22.421875 C 22.535156 -21.378906 24.023438 -19.9375 25.109375 -18.09375 C 26.203125 -16.25 26.75 -14.179688 26.75 -11.890625 C 26.75 -9.609375 26.203125 -7.539062 25.109375 -5.6875 C 24.023438 -3.84375 22.535156 -2.398438 20.640625 -1.359375 C 18.753906 -0.316406 16.632812 0.203125 14.28125 0.203125 Z M 14.28125 -2.046875 C 16.15625 -2.046875 17.847656 -2.46875 19.359375 -3.3125 C 20.878906 -4.164062 22.070312 -5.34375 22.9375 -6.84375 C 23.800781 -8.351562 24.234375 -10.035156 24.234375 -11.890625 C 24.234375 -13.753906 23.800781 -15.4375 22.9375 -16.9375 C 22.070312 -18.445312 20.878906 -19.625 19.359375 -20.46875 C 17.847656 -21.320312 16.15625 -21.75 14.28125 -21.75 C 12.394531 -21.75 10.6875 -21.320312 9.15625 -20.46875 C 7.625 -19.625 6.421875 -18.445312 5.546875 -16.9375 C 4.679688 -15.4375 4.25 -13.753906 4.25 -11.890625 C 4.25 -10.035156 4.679688 -8.351562 5.546875 -6.84375 C 6.421875 -5.34375 7.625 -4.164062 9.15625 -3.3125 C 10.6875 -2.46875 12.394531 -2.046875 14.28125 -2.046875 Z M 14.28125 -2.046875 "/></g></g></g><g fill="#ffffff" fill-opacity="1"><g transform="translate(137.057552, 270.378649)"><g><path d="M 11.25 -11.1875 L 6.390625 -6.25 L 6.390625 0 L 3.875 0 L 3.875 -23.796875 L 6.390625 -23.796875 L 6.390625 -9.40625 L 20.359375 -23.796875 L 23.25 -23.796875 L 12.953125 -13.015625 L 23.953125 0 L 20.96875 0 Z M 11.25 -11.1875 "/></g></g></g><g fill="#ffffff" fill-opacity="1"><g transform="translate(161.209274, 270.378649)"><g><path d="M 20.703125 -2.171875 L 20.703125 0 L 3.875 0 L 3.875 -23.796875 L 20.1875 -23.796875 L 20.1875 -21.609375 L 6.390625 -21.609375 L 6.390625 -13.15625 L 18.6875 -13.15625 L 18.6875 -11.015625 L 6.390625 -11.015625 L 6.390625 -2.171875 Z M 20.703125 -2.171875 "/></g></g></g><g fill="#ffffff" fill-opacity="1"><g transform="translate(183.934314, 270.378649)"><g><path d="M 8.5 -21.609375 L 0.140625 -21.609375 L 0.140625 -23.796875 L 19.375 -23.796875 L 19.375 -21.609375 L 11.015625 -21.609375 L 11.015625 0 L 8.5 0 Z M 8.5 -21.609375 "/></g></g></g><g fill="#ffffff" fill-opacity="1"><g transform="translate(203.432324, 270.378649)"><g><path d="M 14.28125 0.203125 C 11.914062 0.203125 9.773438 -0.320312 7.859375 -1.375 C 5.953125 -2.425781 4.457031 -3.867188 3.375 -5.703125 C 2.300781 -7.546875 1.765625 -9.609375 1.765625 -11.890625 C 1.765625 -14.179688 2.300781 -16.242188 3.375 -18.078125 C 4.457031 -19.910156 5.953125 -21.351562 7.859375 -22.40625 C 9.773438 -23.46875 11.914062 -24 14.28125 -24 C 16.632812 -24 18.753906 -23.472656 20.640625 -22.421875 C 22.535156 -21.378906 24.023438 -19.9375 25.109375 -18.09375 C 26.203125 -16.25 26.75 -14.179688 26.75 -11.890625 C 26.75 -9.609375 26.203125 -7.539062 25.109375 -5.6875 C 24.023438 -3.84375 22.535156 -2.398438 20.640625 -1.359375 C 18.753906 -0.316406 16.632812 0.203125 14.28125 0.203125 Z M 14.28125 -2.046875 C 16.15625 -2.046875 17.847656 -2.46875 19.359375 -3.3125 C 20.878906 -4.164062 22.070312 -5.34375 22.9375 -6.84375 C 23.800781 -8.351562 24.234375 -10.035156 24.234375 -11.890625 C 24.234375 -13.753906 23.800781 -15.4375 22.9375 -16.9375 C 22.070312 -18.445312 20.878906 -19.625 19.359375 -20.46875 C 17.847656 -21.320312 16.15625 -21.75 14.28125 -21.75 C 12.394531 -21.75 10.6875 -21.320312 9.15625 -20.46875 C 7.625 -19.625 6.421875 -18.445312 5.546875 -16.9375 C 4.679688 -15.4375 4.25 -13.753906 4.25 -11.890625 C 4.25 -10.035156 4.679688 -8.351562 5.546875 -6.84375 C 6.421875 -5.34375 7.625 -4.164062 9.15625 -3.3125 C 10.6875 -2.46875 12.394531 -2.046875 14.28125 -2.046875 Z M 14.28125 -2.046875 "/></g></g></g><g fill="#ffffff" fill-opacity="1"><g transform="translate(231.932035, 270.378649)"><g/></g></g><g fill="#ffffff" fill-opacity="1"><g transform="translate(240.831828, 270.378649)"><g><path d="M 20.625 -11.890625 L 23.046875 -11.890625 L 23.046875 -2.828125 C 21.929688 -1.847656 20.613281 -1.097656 19.09375 -0.578125 C 17.582031 -0.0546875 15.988281 0.203125 14.3125 0.203125 C 11.925781 0.203125 9.78125 -0.316406 7.875 -1.359375 C 5.976562 -2.398438 4.484375 -3.84375 3.390625 -5.6875 C 2.304688 -7.539062 1.765625 -9.609375 1.765625 -11.890625 C 1.765625 -14.179688 2.304688 -16.25 3.390625 -18.09375 C 4.484375 -19.9375 5.976562 -21.378906 7.875 -22.421875 C 9.78125 -23.472656 11.9375 -24 14.34375 -24 C 16.15625 -24 17.816406 -23.707031 19.328125 -23.125 C 20.847656 -22.550781 22.128906 -21.695312 23.171875 -20.5625 L 21.609375 -18.96875 C 19.734375 -20.820312 17.34375 -21.75 14.4375 -21.75 C 12.519531 -21.75 10.785156 -21.320312 9.234375 -20.46875 C 7.679688 -19.625 6.460938 -18.445312 5.578125 -16.9375 C 4.691406 -15.4375 4.25 -13.753906 4.25 -11.890625 C 4.25 -10.035156 4.691406 -8.359375 5.578125 -6.859375 C 6.460938 -5.367188 7.671875 -4.191406 9.203125 -3.328125 C 10.742188 -2.472656 12.476562 -2.046875 14.40625 -2.046875 C 16.851562 -2.046875 18.925781 -2.65625 20.625 -3.875 Z M 20.625 -11.890625 "/></g></g></g><g fill="#ffffff" fill-opacity="1"><g transform="translate(267.089606, 270.378649)"><g><path d="M 20.125 0 L 14.6875 -7.640625 C 14.070312 -7.578125 13.4375 -7.546875 12.78125 -7.546875 L 6.390625 -7.546875 L 6.390625 0 L 3.875 0 L 3.875 -23.796875 L 12.78125 -23.796875 C 15.8125 -23.796875 18.1875 -23.066406 19.90625 -21.609375 C 21.632812 -20.160156 22.5 -18.171875 22.5 -15.640625 C 22.5 -13.773438 22.023438 -12.203125 21.078125 -10.921875 C 20.140625 -9.640625 18.800781 -8.71875 17.0625 -8.15625 L 22.875 0 Z M 12.703125 -9.6875 C 15.066406 -9.6875 16.867188 -10.207031 18.109375 -11.25 C 19.359375 -12.289062 19.984375 -13.753906 19.984375 -15.640625 C 19.984375 -17.554688 19.359375 -19.03125 18.109375 -20.0625 C 16.867188 -21.09375 15.066406 -21.609375 12.703125 -21.609375 L 6.390625 -21.609375 L 6.390625 -9.6875 Z M 12.703125 -9.6875 "/></g></g></g><g fill="#ffffff" fill-opacity="1"><g transform="translate(291.648946, 270.378649)"><g><path d="M 3.609375 0.171875 C 3.109375 0.171875 2.679688 -0.0078125 2.328125 -0.375 C 1.972656 -0.738281 1.796875 -1.179688 1.796875 -1.703125 C 1.796875 -2.222656 1.972656 -2.65625 2.328125 -3 C 2.679688 -3.351562 3.109375 -3.53125 3.609375 -3.53125 C 4.097656 -3.53125 4.523438 -3.351562 4.890625 -3 C 5.253906 -2.65625 5.4375 -2.222656 5.4375 -1.703125 C 5.4375 -1.179688 5.253906 -0.738281 4.890625 -0.375 C 4.523438 -0.0078125 4.097656 0.171875 3.609375 0.171875 Z M 3.609375 0.171875 "/></g></g></g><g fill="#ffffff" fill-opacity="1"><g transform="translate(153.192043, 284.970941)"><g><path d="M 2.859375 -6.421875 C 1.640625 -6.421875 0.71875 -5.796875 0.71875 -4.6875 C 0.71875 -3.921875 1.203125 -3.28125 2.140625 -3.0625 L 3.46875 -2.734375 C 4.15625 -2.5625 4.5 -2.21875 4.5 -1.703125 C 4.5 -1.015625 3.9375 -0.578125 2.984375 -0.578125 C 2.03125 -0.578125 1.34375 -1.046875 1.109375 -1.859375 L 0.390625 -1.703125 C 0.8125 -0.484375 1.671875 0.09375 2.96875 0.09375 C 4.53125 0.09375 5.328125 -0.75 5.328125 -1.8125 C 5.328125 -2.625 4.796875 -3.234375 3.921875 -3.46875 L 2.28125 -3.875 C 1.828125 -3.984375 1.484375 -4.265625 1.484375 -4.796875 C 1.484375 -5.40625 2.15625 -5.796875 2.84375 -5.796875 C 3.53125 -5.796875 4.265625 -5.34375 4.390625 -4.6875 L 5.109375 -4.875 C 4.78125 -5.859375 3.96875 -6.421875 2.859375 -6.421875 Z M 2.859375 -6.421875 "/></g></g></g><g fill="#ffffff" fill-opacity="1"><g transform="translate(160.979592, 284.970941)"><g><path d="M 0.796875 -6.328125 L 0.796875 0 L 1.59375 0 L 1.59375 -6.328125 Z M 0.796875 -6.328125 "/></g></g></g><g fill="#ffffff" fill-opacity="1"><g transform="translate(165.442477, 284.970941)"><g><path d="M 0.71875 -6.328125 L 0.71875 0 L 1.390625 0 L 1.390625 -5.515625 L 4.609375 0 L 5.390625 0 L 5.390625 -6.328125 L 4.71875 -6.328125 L 4.71875 -1.171875 L 1.71875 -6.328125 Z M 0.71875 -6.328125 "/></g></g></g><g fill="#ffffff" fill-opacity="1"><g transform="translate(173.599432, 284.970941)"><g><path d="M 3.03125 -6.421875 C 1.453125 -6.421875 0.390625 -5.1875 0.390625 -3.234375 C 0.390625 -1.390625 1.328125 0.09375 2.96875 0.09375 C 4.140625 0.09375 4.96875 -0.578125 5.3125 -1.96875 L 4.59375 -2.140625 C 4.328125 -1.0625 3.78125 -0.578125 2.9375 -0.578125 C 1.890625 -0.578125 1.25 -1.75 1.25 -3.078125 C 1.25 -4.625 1.8125 -5.765625 3 -5.765625 C 3.78125 -5.765625 4.28125 -5.296875 4.5625 -4.265625 L 5.3125 -4.40625 C 5.015625 -5.703125 4.203125 -6.421875 3.03125 -6.421875 Z M 3.03125 -6.421875 "/></g></g></g><g fill="#ffffff" fill-opacity="1"><g transform="translate(181.38698, 284.970941)"><g><path d="M 0.78125 -6.328125 L 0.78125 0 L 4.890625 0 L 4.890625 -0.6875 L 1.578125 -0.6875 L 1.578125 -3 L 4.125 -3 L 4.125 -3.640625 L 1.578125 -3.640625 L 1.578125 -5.65625 L 4.796875 -5.65625 L 4.796875 -6.328125 Z M 0.78125 -6.328125 "/></g></g></g><g fill="#ffffff" fill-opacity="1"><g transform="translate(188.620421, 284.970941)"><g/></g></g><g fill="#ffffff" fill-opacity="1"><g transform="translate(193.452713, 284.970941)"><g><path d="M 2.75 -6.421875 C 1.546875 -6.421875 0.6875 -5.71875 0.46875 -4.578125 L 1.203125 -4.34375 C 1.25 -5.1875 1.9375 -5.796875 2.71875 -5.796875 C 3.46875 -5.796875 4.15625 -5.296875 4.15625 -4.53125 C 4.15625 -3.8125 3.703125 -3.203125 2.90625 -2.5625 L 0.46875 -0.65625 L 0.46875 0 L 4.953125 0 L 4.953125 -0.65625 L 1.46875 -0.65625 L 3.5625 -2.265625 C 3.765625 -2.40625 4.390625 -2.953125 4.703125 -3.546875 C 4.859375 -3.84375 4.953125 -4.1875 4.953125 -4.53125 C 4.953125 -5.671875 3.921875 -6.421875 2.75 -6.421875 Z M 2.75 -6.421875 "/></g></g></g><g fill="#ffffff" fill-opacity="1"><g transform="translate(201.055561, 284.970941)"><g><path d="M 2.734375 -6.421875 C 1.15625 -6.421875 0.375 -4.9375 0.375 -3.125 C 0.375 -1.484375 1.171875 0.046875 2.765625 0.09375 C 4.234375 0.140625 5.171875 -1.40625 5.171875 -3.15625 C 5.171875 -4.640625 4.53125 -6.421875 2.734375 -6.421875 Z M 1.1875 -3.21875 C 1.1875 -4.796875 1.71875 -5.8125 2.71875 -5.8125 C 3.8125 -5.8125 4.359375 -4.734375 4.359375 -3.03125 C 4.359375 -1.5625 3.828125 -0.515625 2.796875 -0.515625 C 1.75 -0.515625 1.1875 -1.53125 1.1875 -3.21875 Z M 1.1875 -3.21875 "/></g></g></g><g fill="#ffffff" fill-opacity="1"><g transform="translate(208.658409, 284.970941)"><g><path d="M 2.75 -6.421875 C 1.546875 -6.421875 0.6875 -5.71875 0.46875 -4.578125 L 1.203125 -4.34375 C 1.25 -5.1875 1.9375 -5.796875 2.71875 -5.796875 C 3.46875 -5.796875 4.15625 -5.296875 4.15625 -4.53125 C 4.15625 -3.8125 3.703125 -3.203125 2.90625 -2.5625 L 0.46875 -0.65625 L 0.46875 0 L 4.953125 0 L 4.953125 -0.65625 L 1.46875 -0.65625 L 3.5625 -2.265625 C 3.765625 -2.40625 4.390625 -2.953125 4.703125 -3.546875 C 4.859375 -3.84375 4.953125 -4.1875 4.953125 -4.53125 C 4.953125 -5.671875 3.921875 -6.421875 2.75 -6.421875 Z M 2.75 -6.421875 "/></g></g></g><g fill="#ffffff" fill-opacity="1"><g transform="translate(216.261257, 284.970941)"><g><path d="M 3.21875 -6.328125 L 0.3125 -2 L 0.3125 -1.484375 L 3.4375 -1.484375 L 3.4375 0 L 4.203125 0 L 4.203125 -1.484375 L 5.234375 -1.484375 L 5.234375 -2.09375 L 4.203125 -2.09375 L 4.203125 -6.328125 Z M 3.4375 -2.09375 L 1.140625 -2.09375 L 3.4375 -5.71875 Z M 3.4375 -2.09375 "/></g></g></g></svg>